<?xml version="1.0" encoding="UTF-8" standalone="no" ?>
<!DOCTYPE svg PUBLIC "-//W3C//DTD SVG 1.1//EN" "http://www.w3.org/Graphics/SVG/1.1/DTD/svg11.dtd">
<svg xmlns="http://www.w3.org/2000/svg" xmlns:xlink="http://www.w3.org/1999/xlink" version="1.1" width="400" height="400" viewBox="0 0 400 400" xml:space="preserve">
<desc>Created with Fabric.js 5.3.0</desc>
<defs>
</defs>
<g transform="matrix(4.957010582 0 0 4.957010582 200.1322751323 200.1322751323)" id="jRaO8hi7OU72s1_VB7pVc"  >
<g style=""   >
		<g transform="matrix(1 0 0 1 -16.15 -0.0143626838)" id="F6Ty1V_rcEQChNS9lU74h"  >
<path style="stroke: none; stroke-width: 1; stroke-dasharray: none; stroke-linecap: butt; stroke-dashoffset: 0; stroke-linejoin: miter; stroke-miterlimit: 4; fill: rgb(179,181,179); fill-rule: nonzero; opacity: 1;"  transform=" translate(-23.85, -39.9856373162)" d="M 46.3 10 C 45.4 9.5 44.4 9.4 43.5 9.9 L 21.4 24.1 L 15.399999999999999 24.1 C 7 24.1 0 31.4 0 40 C 0 48.5 6.9 55.4 15.4 55.4 L 21.4 55.4 C 21.4 55.4 43.5 70.1 43.5 70.1 C 43.9 70.3 44.4 70.39999999999999 44.8 70.39999999999999 C 45.3 70.39999999999999 45.8 70.3 46.3 69.99999999999999 C 47.199999999999996 69.49999999999999 47.699999999999996 68.59999999999998 47.699999999999996 67.59999999999998 L 47.699999999999996 12.5 C 47.7 11.5 47.1 10.5 46.3 10 z" stroke-linecap="round" />
</g>
		<g transform="matrix(1 0 0 1 -16.2 0)" id="IGI-oVHeBiegGLeleAugy"  >
<path style="stroke: none; stroke-width: 1; stroke-dasharray: none; stroke-linecap: butt; stroke-dashoffset: 0; stroke-linejoin: miter; stroke-miterlimit: 4; fill: rgb(255,255,255); fill-rule: nonzero; opacity: 1;"  transform=" translate(-23.8, -40)" d="M 27.1 28.7 L 41.900000000000006 19.1 L 41.900000000000006 60.9 L 27.100000000000005 51.3 C 27.1 51.3 27.1 28.7 27.1 28.7 z M 5.7 40.3 C 5.7 45.599999999999994 10 50 15.3 50 L 21.3 50 L 21.3 30.1 L 15.3 30.1 C 10.1 30.1 5.7 34.7 5.7 40.3 z" stroke-linecap="round" />
</g>
		<g transform="matrix(1 0 0 1 25.5564538686 -1.1)" id="Xqy6Zp6_FLDHwSiam1uSb"  >
<path style="stroke: none; stroke-width: 1; stroke-dasharray: none; stroke-linecap: butt; stroke-dashoffset: 0; stroke-linejoin: miter; stroke-miterlimit: 4; fill: rgb(179,181,179); fill-rule: nonzero; opacity: 1;"  transform=" translate(-65.5564538686, -38.9)" d="M 79.1 29.7 L 69.89999999999999 38.9 L 79.1 48.099999999999994 C 80.3 49.3 80.3 51.3 79.1 52.49999999999999 C 78.5 53.099999999999994 77.69999999999999 53.39999999999999 76.89999999999999 53.39999999999999 C 76.1 53.39999999999999 75.3 53.099999999999994 74.69999999999999 52.49999999999999 L 65.49999999999999 43.3 L 56.29999999999998 52.5 C 55.69999999999998 53.1 54.899999999999984 53.4 54.09999999999998 53.4 C 53.299999999999976 53.4 52.6 53 52 52.4 C 50.8 51.199999999999996 50.8 49.199999999999996 52 48 L 61.2 38.8 L 52 29.7 C 50.8 28.5 50.8 26.5 52 25.299999999999997 C 53.2 24.099999999999998 55.2 24.099999999999998 56.4 25.299999999999997 L 65.6 34.5 L 74.8 25.3 C 76 24.1 78 24.1 79.2 25.3 C 80.3 26.5 80.3 28.5 79.1 29.7 z" stroke-linecap="round" />
</g>
</g>
</g>
</svg>